<svg xmlns="http://www.w3.org/2000/svg" viewBox="0 0 999 270"><title>Logo 2_3</title><g id="Layer_2" data-name="Layer 2"><g id="Layer_1-2" data-name="Layer 1"><path d="M171.51,76.38,152,131.27a20.1,20.1,0,0,0-1.16,6.73v56.56a20.07,20.07,0,0,1-1.15,6.69l-20.87,59.2a7.16,7.16,0,0,0,6.75,9.55H211.1a4.9,4.9,0,0,0,4.9-4.9V202.9a4.9,4.9,0,0,1,4.9-4.9h8.2a4.9,4.9,0,0,1,4.9,4.9v62.2a4.9,4.9,0,0,0,4.9,4.9h53.2a4.9,4.9,0,0,0,4.9-4.9V67.9a4.9,4.9,0,0,0-4.9-4.9H190.46A20.11,20.11,0,0,0,171.51,76.38ZM229.1,153h-8.2a4.9,4.9,0,0,1-4.9-4.9V114a4.9,4.9,0,0,1,4.9-4.9h8.2A4.9,4.9,0,0,1,234,114V148.1A4.9,4.9,0,0,1,229.1,153Z"/><path d="M0,4.9V49.1A4.9,4.9,0,0,0,4.9,54H301.1a4.9,4.9,0,0,1,4.9,4.9V265.1a4.9,4.9,0,0,0,4.9,4.9h80.2a4.9,4.9,0,0,0,4.9-4.9V58.9a4.9,4.9,0,0,1,4.9-4.9H994.1a4.9,4.9,0,0,0,4.9-4.9V4.9A4.9,4.9,0,0,0,994.1,0H4.9A4.9,4.9,0,0,0,0,4.9Z"/><path d="M626.34,74.86,657,143V67.9a4.9,4.9,0,0,1,4.9-4.9h44.2a4.9,4.9,0,0,1,4.9,4.9V265.1a4.9,4.9,0,0,1-4.9,4.9h-36a20.11,20.11,0,0,1-18.38-11.95L621,189v76.1a4.9,4.9,0,0,1-4.9,4.9H562.9a4.9,4.9,0,0,1-4.9-4.9V67.9a4.9,4.9,0,0,1,4.9-4.9H608A20.12,20.12,0,0,1,626.34,74.86Z"/><path d="M720,67.9V265.1a4.9,4.9,0,0,0,4.9,4.9H867.11a4.9,4.9,0,0,0,4.9-4.9v-41a4.9,4.9,0,0,0-4.9-4.9H810a4.9,4.9,0,0,1-4.9-4.9V202.9A4.9,4.9,0,0,1,810,198h14.78a4.9,4.9,0,0,0,4.9-4.9V157.9a4.9,4.9,0,0,0-4.9-4.9H810a4.9,4.9,0,0,1-4.9-4.9V112.9A4.9,4.9,0,0,1,810,108h14.78a4.9,4.9,0,0,0,4.9-4.9V67.9a4.9,4.9,0,0,0-4.9-4.9H724.9A4.9,4.9,0,0,0,720,67.9Z"/><path d="M102.8,63H4.9A4.9,4.9,0,0,0,0,67.9V265.1A4.9,4.9,0,0,0,4.9,270h97.87a20.12,20.12,0,0,0,19-13.42l19.51-55.33a20.07,20.07,0,0,0,1.15-6.69V138a20.1,20.1,0,0,0-1.16-6.73L121.75,76.38A20.11,20.11,0,0,0,102.8,63Zm-40,135H55.7a4.9,4.9,0,0,1-4.9-4.9V157.9a4.9,4.9,0,0,1,4.9-4.9h7.13a4.9,4.9,0,0,1,4.9,4.9v35.2A4.9,4.9,0,0,1,62.83,198Z"/><path d="M405,67.9V265.1a4.9,4.9,0,0,0,4.9,4.9h53.2a4.9,4.9,0,0,0,4.9-4.9V202.9a4.9,4.9,0,0,1,4.9-4.9h8.2a4.9,4.9,0,0,1,4.9,4.9v62.2a4.9,4.9,0,0,0,4.9,4.9h53.2a4.9,4.9,0,0,0,4.9-4.9V67.9a4.9,4.9,0,0,0-4.9-4.9H409.9A4.9,4.9,0,0,0,405,67.9ZM481.1,153h-8.2a4.9,4.9,0,0,1-4.9-4.9V114a4.9,4.9,0,0,1,4.9-4.9h8.2A4.9,4.9,0,0,1,486,114V148.1A4.9,4.9,0,0,1,481.1,153Z"/><path d="M838.14,67.9V193.1A4.9,4.9,0,0,0,843,198h32.54a4.89,4.89,0,0,1,4.89,4.9v62.2a4.9,4.9,0,0,0,4.9,4.9h74.87a4.9,4.9,0,0,0,4.9-4.9V130.9A4.89,4.89,0,0,1,970,126H994.1a4.9,4.9,0,0,0,4.9-4.9V67.9a4.9,4.9,0,0,0-4.9-4.9H843A4.9,4.9,0,0,0,838.14,67.9Z"/></g></g></svg>