<svg xmlns="http://www.w3.org/2000/svg" viewBox="0 0 576 558"><title>On top Logo</title><g id="Layer_2" data-name="Layer 2"><g id="Layer_1-2" data-name="Layer 1"><path d="M297,54H208.08A27.53,27.53,0,0,0,182.3,71.87L164,120.77a30.74,30.74,0,0,0-2,10.82v61.67a26.2,26.2,0,0,1-1.66,9.18L140,256.55A10,10,0,0,0,149.36,270H216a9,9,0,0,0,9-9V207a9,9,0,0,1,18,0v54a9,9,0,0,0,9,9h45a9,9,0,0,0,9-9V63A9,9,0,0,0,297,54Zm-54,90a9,9,0,0,1-18,0V108a9,9,0,0,1,18,0Z"/><path d="M0,9V36a9,9,0,0,0,9,9H306a9,9,0,0,1,9,9V261a9,9,0,0,0,9,9h72a9,9,0,0,0,9-9V54a9,9,0,0,1,9-9H567a9,9,0,0,0,9-9V9a9,9,0,0,0-9-9H9A9,9,0,0,0,0,9Z"/><path d="M9,546.38V290.62A11.62,11.62,0,0,1,20.62,279H62.68a24.73,24.73,0,0,1,22.6,14.68L119,369.55a3.27,3.27,0,0,0,6.26-1.33V290.63A11.62,11.62,0,0,1,136.87,279h46.5A11.62,11.62,0,0,1,195,290.63V546.38A11.62,11.62,0,0,1,183.37,558H141.32a24.73,24.73,0,0,1-22.6-14.68L85,467.45a3.27,3.27,0,0,0-6.26,1.33v77.6A11.62,11.62,0,0,1,67.12,558H20.62A11.62,11.62,0,0,1,9,546.38Z"/><path d="M206.62,290.62V546.38A11.63,11.63,0,0,0,218.25,558H381a11.62,11.62,0,0,0,11.62-11.62V499.87A11.62,11.62,0,0,0,381,488.25H276.37a11.62,11.62,0,0,1-11.62-11.62V465a11.62,11.62,0,0,1,11.62-11.62H334.5a11.63,11.63,0,0,0,11.62-11.63V406.87a11.62,11.62,0,0,0-11.62-11.62H276.37a11.62,11.62,0,0,1-11.62-11.62V372a11.63,11.63,0,0,1,11.62-11.63H334.5a11.62,11.62,0,0,0,11.62-11.62V290.62A11.62,11.62,0,0,0,334.5,279H218.25A11.63,11.63,0,0,0,206.62,290.62Z"/><path d="M151,120.77,132.7,71.87A27.53,27.53,0,0,0,106.92,54H18a9,9,0,0,0-9,9V261a9,9,0,0,0,9,9H119.1a9.94,9.94,0,0,0,9.32-6.46l22.92-61.1a26.2,26.2,0,0,0,1.66-9.18V131.59A30.74,30.74,0,0,0,151,120.77ZM81,189a9,9,0,0,1-18,0V135a9,9,0,0,1,18,0Z"/><path d="M558,194.66V63a9,9,0,0,0-9-9H423a9,9,0,0,0-9,9V261a9,9,0,0,0,9,9h45a9,9,0,0,0,9-9V207.33a9.29,9.29,0,0,1,9.06-9.33,9,9,0,0,1,8.94,9v54a9,9,0,0,0,9,9h54a9,9,0,0,0,9-9V201.34a3.35,3.35,0,0,0-3.34-3.34h-2.32A3.35,3.35,0,0,1,558,194.66ZM495,144a9,9,0,0,1-18,0V108a9,9,0,0,1,18,0Z"/><path d="M357.75,290.62V441.75a11.62,11.62,0,0,0,11.62,11.62h23.25A11.63,11.63,0,0,1,404.25,465v81.38A11.62,11.62,0,0,0,415.87,558h69.75a11.62,11.62,0,0,0,11.63-11.62v-186a11.62,11.62,0,0,1,11.62-11.63h55.5A11.62,11.62,0,0,0,576,337.13V290.62A11.62,11.62,0,0,0,564.37,279h-195A11.62,11.62,0,0,0,357.75,290.62Z"/></g></g></svg>