<svg xmlns="http://www.w3.org/2000/svg" viewBox="0 0 1071 216"><title>Logo</title><g id="Layer_2" data-name="Layer 2"><g id="Layer_1-2" data-name="Layer 1"><path d="M292.73,0H183a4.27,4.27,0,0,0-4,2.77l-25.69,68.5a4.28,4.28,0,0,0-.27,1.5v70.46a4.28,4.28,0,0,1-.27,1.5l-24.56,65.5a4.27,4.27,0,0,0,4,5.77h79.56a4.27,4.27,0,0,0,4.27-4.27V148.27a4.27,4.27,0,0,1,4.27-4.27h9.46a4.27,4.27,0,0,1,4.27,4.27v63.46a4.27,4.27,0,0,0,4.27,4.27h54.46a4.27,4.27,0,0,0,4.27-4.27V4.27A4.27,4.27,0,0,0,292.73,0ZM234,94.73A4.27,4.27,0,0,1,229.73,99h-9.46A4.27,4.27,0,0,1,216,94.73V49.27A4.27,4.27,0,0,1,220.27,45h9.46A4.27,4.27,0,0,1,234,49.27Z"/><path d="M306,4.27V67.73A4.27,4.27,0,0,0,310.27,72h27.46A4.27,4.27,0,0,1,342,76.27V211.73a4.27,4.27,0,0,0,4.27,4.27h81.46a4.27,4.27,0,0,0,4.27-4.27V76.27A4.27,4.27,0,0,1,436.27,72h27.46A4.27,4.27,0,0,0,468,67.73V4.27A4.27,4.27,0,0,0,463.73,0H310.27A4.27,4.27,0,0,0,306,4.27Z"/><path d="M639,211.73V4.27A4.27,4.27,0,0,1,643.27,0h47a4.27,4.27,0,0,1,3.91,2.54L720.82,62.6A4.27,4.27,0,0,0,729,60.86V13.27A4.27,4.27,0,0,1,733.27,9h45.46A4.27,4.27,0,0,1,783,13.27V211.73a4.27,4.27,0,0,1-4.27,4.27h-47a4.27,4.27,0,0,1-3.91-2.54L701.18,153.4a4.27,4.27,0,0,0-8.18,1.74v56.59a4.27,4.27,0,0,1-4.27,4.27H643.27A4.27,4.27,0,0,1,639,211.73Z"/><path d="M792,4.27V211.73a4.27,4.27,0,0,0,4.27,4.27H931.73a4.27,4.27,0,0,0,4.27-4.27V166.27a4.27,4.27,0,0,0-4.27-4.27H841.27a4.27,4.27,0,0,1-4.27-4.27V139.27a4.27,4.27,0,0,1,4.27-4.27h18.46a4.27,4.27,0,0,0,4.27-4.27V85.27A4.27,4.27,0,0,0,859.73,81H841.27A4.27,4.27,0,0,1,837,76.73V58.27A4.27,4.27,0,0,1,841.27,54h45.46A4.27,4.27,0,0,0,891,49.73V4.27A4.27,4.27,0,0,0,886.73,0H796.27A4.27,4.27,0,0,0,792,4.27Z"/><path d="M143.73,71.27,118,2.77A4.27,4.27,0,0,0,114,0H4.27A4.27,4.27,0,0,0,0,4.27V211.73A4.27,4.27,0,0,0,4.27,216H114a4.27,4.27,0,0,0,4-2.77l25.69-68.5a4.28,4.28,0,0,0,.27-1.5V72.77A4.28,4.28,0,0,0,143.73,71.27ZM72,139.73A4.27,4.27,0,0,1,67.73,144H58.27A4.27,4.27,0,0,1,54,139.73V76.27A4.27,4.27,0,0,1,58.27,72h9.46A4.27,4.27,0,0,1,72,76.27Z"/><path d="M625.73,144h-.46a4.27,4.27,0,0,1-4.27-4.27V4.27A4.27,4.27,0,0,0,616.73,0H481.27A4.27,4.27,0,0,0,477,4.27V211.73a4.27,4.27,0,0,0,4.27,4.27h54.46a4.27,4.27,0,0,0,4.27-4.27V148.27a4.27,4.27,0,0,1,4.27-4.27h9.46a4.27,4.27,0,0,1,4.27,4.27v63.46a4.27,4.27,0,0,0,4.27,4.27h63.46a4.27,4.27,0,0,0,4.27-4.27V148.27A4.27,4.27,0,0,0,625.73,144ZM558,94.73A4.27,4.27,0,0,1,553.73,99h-9.46A4.27,4.27,0,0,1,540,94.73V49.27A4.27,4.27,0,0,1,544.27,45h9.46A4.27,4.27,0,0,1,558,49.27Z"/><path d="M900,4.27V67.73A4.27,4.27,0,0,0,904.27,72h36.46A4.27,4.27,0,0,1,945,76.27V211.73a4.27,4.27,0,0,0,4.27,4.27h81.46a4.27,4.27,0,0,0,4.27-4.27V76.27a4.27,4.27,0,0,1,4.27-4.27h27.46a4.27,4.27,0,0,0,4.27-4.27V4.27A4.27,4.27,0,0,0,1066.73,0H904.27A4.27,4.27,0,0,0,900,4.27Z"/></g></g></svg>